# xmcd
#
# Track frame offsets:
#	150
#	15420
#	28050
#	39432
#	52675
#	66227
#	81535
#	103005
#	114620
#	125380
#	138980
#	153597
#	168145
#	180395
#	189580
#	211422
#	221075
#	238210
#	257905
#	274130
#
# Disc length: 3865 seconds
#
# Revision: 2
# Processed by: cddbd v1.4b41PL2 Copyright (c) Steve Scherf et al.
# Submitted via: EZCDDA 4.3.2
#
DISCID=1e0f1714
DTITLE=Various Artist - 70-luku 3 - CD1
DYEAR=1900
DGENRE=
TTITLE0=Kai Hyttinen - Nosta lippu salkoon
TTITLE1=Carola - Penkki, puu ja puistotie
TTITLE2=Fredi - Rakkaustarina
TTITLE3=Katri Helena - Katson sineen taivaan
TTITLE4=Tapani Kansa - Naimisiin tahdo en
TTITLE5=Maarit - Laakson lilja
TTITLE6=Petri and Petterson Brass - Maalaismaisema
TTITLE7=Taiska - Moi moi vain
TTITLE8=Matti Esko - Trasselijussin salsa
TTITLE9=Paivi Paunu ja Kim Floor - Muistathan
TTITLE10=Frederik - Ramaya
TTITLE11=Virve Rosti - N‰inkˆ aina meille t‰‰ll‰ k‰y
TTITLE12=Erkki Junkkarinen - Lappeenrantaan
TTITLE13=Veikko Lavi - Silakka-apajalla
TTITLE14=Karma - Hyv‰‰ huomenta Suomi
TTITLE15=Hullujussi - S‰vel rakkauden
TTITLE16=Arto Sotavalta - Seilaan
TTITLE17=Hector - Kuinka voit v‰itt‰‰ (ett‰ yksin‰inen oot)
TTITLE18=Vesa-Matti Loiri - Nocturne
TTITLE19=Juice Leskinen - Syksyn s‰vel
EXTD=
EXTT0=
EXTT1=
EXTT2=
EXTT3=
EXTT4=
EXTT5=
EXTT6=
EXTT7=
EXTT8=
EXTT9=
EXTT10=
EXTT11=
EXTT12=
EXTT13=
EXTT14=
EXTT15=
EXTT16=
EXTT17=
EXTT18=
EXTT19=
PLAYORDER=
